{
  "accessors": [
    {
      "bufferView": 2,
      "componentType": 5126,
      "count": 187,
      "max": [
        10.954994201660156,
        10.043806076049805,
        3.7508978843688965
      ],
      "min": [
        -11.025785446166992,
        -8.8484821319580078,
        2.7173750400543213
      ],
      "type": "VEC3"
    },
    {
      "bufferView": 2,
      "byteOffset": 2244,
      "componentType": 5126,
      "count": 187,
      "max": [
        1,
        1,
        1
      ],
      "min": [
        -1,
        -1,
        -0.98905128240585327
      ],
      "type": "VEC3"
    },
    {
      "bufferView": 1,
      "componentType": 5126,
      "count": 187,
      "max": [
        0.875,
        0.99235302209854126
      ],
      "min": [
        0.125,
        0
      ],
      "type": "VEC2"
    },
    {
      "bufferView": 0,
      "componentType": 5125,
      "count": 291,
      "max": [
        186
      ],
      "min": [
        0
      ],
      "type": "SCALAR"
    },
    {
      "bufferView": 2,
      "byteOffset": 4488,
      "componentType": 5126,
      "count": 4617,
      "max": [
        10.954994201660156,
        12.018465042114258,
        6.5038180351257324
      ],
      "min": [
        -11.025785446166992,
        -9.8361482620239258,
        1.6307410001754761
      ],
      "type": "VEC3"
    },
    {
      "bufferView": 2,
      "byteOffset": 59892,
      "componentType": 5126,
      "count": 4617,
      "max": [
        1,
        1,
        1
      ],
      "min": [
        -1,
        -1,
        -1
      ],
      "type": "VEC3"
    },
    {
      "bufferView": 1,
      "byteOffset": 1496,
      "componentType": 5126,
      "count": 4617,
      "max": [
        0.875,
        1
      ],
      "min": [
        0.125,
        -0
      ],
      "type": "VEC2"
    },
    {
      "bufferView": 0,
      "byteOffset": 1164,
      "componentType": 5125,
      "count": 13224,
      "max": [
        4616
      ],
      "min": [
        0
      ],
      "type": "SCALAR"
    }
  ],
  "asset": {
    "extras": {
      "author": "Piyush Ashok Jain (https://sketchfab.com/PiyushAnimate)",
      "license": "CC-BY-4.0 (http://creativecommons.org/licenses/by/4.0/)",
      "source": "https://sketchfab.com/3d-models/airplane-032928e6600a4ffbb732d7583bfc6913",
      "title": "Airplane"
    },
    "generator": "Sketchfab-9.55.1",
    "version": "2.0"
  },
  "bufferViews": [
    {
      "buffer": 0,
      "byteLength": 54060,
      "byteOffset": 0,
      "name": "floatBufferViews",
      "target": 34963
    },
    {
      "buffer": 0,
      "byteLength": 38432,
      "byteOffset": 54060,
      "byteStride": 8,
      "name": "floatBufferViews",
      "target": 34962
    },
    {
      "buffer": 0,
      "byteLength": 115296,
      "byteOffset": 92492,
      "byteStride": 12,
      "name": "floatBufferViews",
      "target": 34962
    }
  ],
  "buffers": [
    {
      "byteLength": 207788,
      "uri": "scene.bin"
    }
  ],
  "materials": [
    {
      "doubleSided": true,
      "name": "initialShadingGroup",
      "pbrMetallicRoughness": {
        "baseColorFactor": [
          1,
          1,
          1,
          1
        ],
        "metallicFactor": 0,
        "roughnessFactor": 0.59999999999999998
      }
    }
  ],
  "meshes": [
    {
      "primitives": [
        {
          "attributes": {
            "NORMAL": 1,
            "POSITION": 0,
            "TEXCOORD_0": 2
          },
          "indices": 3,
          "material": 0,
          "mode": 4
        }
      ]
    },
    {
      "primitives": [
        {
          "attributes": {
            "NORMAL": 5,
            "POSITION": 4,
            "TEXCOORD_0": 6
          },
          "indices": 7,
          "material": 0,
          "mode": 4
        }
      ]
    }
  ],
  "nodes": [
    {
      "children": [
        1
      ],
      "name": "RootNode (gltf orientation matrix)",
      "rotation": [
        -0.70710678118654746,
        -0,
        -0,
        0.70710678118654757
      ]
    },
    {
      "children": [
        2
      ],
      "name": "RootNode (model correction matrix)"
    },
    {
      "children": [
        3,
        4
      ],
      "name": "6f69ebd6e2d04339bb3e6933429fb761.obj.cleaner.materialmerger.gles"
    },
    {
      "mesh": 0,
      "name": ""
    },
    {
      "mesh": 1,
      "name": ""
    }
  ],
  "scene": 0,
  "scenes": [
    {
      "name": "OSG_Scene",
      "nodes": [
        0
      ]
    }
  ]
}

